<svg width="108" height="28" viewBox="0 0 108 28" fill="none" xmlns="http://www.w3.org/2000/svg">
<path d="M41.5123 11.1163C41.109 12.5021 40.743 13.7432 40.3884 14.9859C40.0761 16.079 39.7833 17.1769 39.4694 18.27C39.0595 19.6997 38.43 20.1795 36.9628 20.1893C36.0145 20.1958 35.0662 20.1974 34.118 20.1926C32.8167 20.1861 32.1986 19.7713 31.7789 18.483C31.1836 16.6548 30.6452 14.8086 30.0889 12.9673C29.4855 10.9731 28.8674 8.98223 28.2916 6.97829C27.7629 5.13864 28.4136 4.31233 30.3362 4.30745C32.1352 4.30258 32.7451 4.77917 33.1908 6.53261C33.8902 9.28803 34.5864 12.0434 35.2891 14.7972C35.3655 15.0965 35.3932 15.4234 35.6242 15.6707C35.9283 15.5194 35.9267 15.2527 35.995 15.0347C36.8734 12.2159 37.7533 9.39864 38.6154 6.57491C39.2482 4.50591 41.2196 3.59666 43.2251 4.48639C44.0189 4.83773 44.3328 5.56806 44.5638 6.33255C45.4047 9.10585 46.231 11.8824 47.072 14.6573C47.1728 14.9892 47.2118 15.3503 47.4623 15.6561C47.8218 15.5357 47.7812 15.1925 47.8511 14.9322C48.6123 12.1101 49.4289 9.29942 50.0974 6.45617C50.639 4.1562 52.3339 4.01793 54.2972 4.49777C55.1089 4.69621 55.3919 5.64287 55.0828 6.70502C54.4631 8.83583 53.8125 10.9585 53.1684 13.0828C52.656 14.768 52.129 16.4466 51.6166 18.1317C51.1319 19.729 50.5236 20.1909 48.8645 20.1926C47.9698 20.1926 47.0768 20.1942 46.1822 20.1877C44.7216 20.1763 44.1067 19.6997 43.7017 18.2439C43.1275 16.1831 42.5647 14.1173 41.9938 12.0564C41.9174 11.7799 41.8865 11.4741 41.5156 11.1147L41.5123 11.1163Z" fill="#12ADC1"/>
<path d="M14.3436 7.06828C14.4233 6.56893 14.4559 6.22084 14.5372 5.88414C14.7909 4.82524 15.4448 4.33401 16.5997 4.31123C17.8945 4.28521 18.5955 4.7374 18.8997 5.80118C19.0054 6.16716 19.0509 6.53965 19.0509 6.92352C19.0444 12.7775 19.0509 18.6316 19.0428 24.4856C19.0396 27.0881 17.4618 27.3663 15.6579 27.0214C14.695 26.8376 14.2005 25.9723 14.1891 24.6727C14.1712 22.7208 14.1842 20.7705 14.1842 18.8186C14.1842 18.5763 14.1842 18.3339 14.1842 18.0411C14.0704 18.0899 13.9728 18.0981 13.95 18.1452C13.1107 19.8141 11.6517 20.4485 9.89334 20.5217C8.02604 20.5997 6.15548 20.6453 4.30932 20.2435C2.15574 19.7751 0.867495 18.4754 0.594231 16.2779C0.264037 13.6055 0.238015 10.9265 0.669057 8.25893C1.01389 6.12324 2.26147 4.80571 4.36463 4.33401C6.55399 3.84278 8.77589 3.78747 10.988 4.10466C12.8326 4.36979 13.1481 4.70162 14.342 7.06828H14.3436ZM14.2883 12.3579C14.2542 11.8244 14.2347 11.1461 14.1631 10.4743C14.0346 9.26903 13.5808 8.69159 12.3983 8.46225C10.7131 8.13531 8.9971 8.16459 7.30872 8.42321C6.03023 8.62003 5.59106 9.1633 5.37473 10.4776C5.17954 11.6617 5.18279 12.8573 5.33406 14.0398C5.5016 15.3427 6.0709 15.8989 7.35752 16.1071C8.91903 16.3609 10.4887 16.3528 12.0518 16.1315C13.6149 15.9103 14.1062 15.3524 14.2038 13.8006C14.2314 13.368 14.2542 12.9353 14.2883 12.3595V12.3579Z" fill="#12ADC1"/>
<path d="M68.9867 11.707C69.1201 10.6188 69.1005 9.81037 68.9639 9.00847C68.8256 8.19194 68.245 7.77391 67.4886 7.72674C65.174 7.58034 62.8513 7.27293 60.7025 8.63275C59.6567 9.29476 58.4172 8.93528 57.9032 8.04879C57.303 7.01429 57.6251 5.7781 58.671 5.05915C59.7673 4.30768 61.0311 4.10273 62.3047 4.04092C64.8471 3.9173 67.3959 3.80507 69.9317 4.18406C72.4936 4.5663 74.0047 6.29047 74.0291 8.92552C74.0567 11.8794 74.0469 14.8349 74.0372 17.7887C74.0323 19.1583 73.3719 20.0415 72.3033 20.17C70.462 20.3912 69.691 19.9439 69.2681 18.4133C69.2404 18.3141 69.1884 18.2214 69.0778 17.9611C68.2807 20.3018 66.3858 20.466 64.4876 20.5327C62.6496 20.5978 60.8018 20.6645 58.9914 20.1944C57.5242 19.8138 56.6589 18.8899 56.4214 17.3869C56.2034 16.0076 56.2051 14.6332 56.4946 13.2652C56.8264 11.7005 57.7503 10.6969 59.3444 10.4171C61.7891 9.98768 64.2517 10.0153 66.7144 10.2447C67.6057 10.3276 68.3637 10.7148 68.9867 11.7053V11.707ZM65.091 16.886C65.091 16.886 65.091 16.8811 65.091 16.8778C65.8767 16.8778 66.6656 16.9315 67.4447 16.8648C68.5556 16.7705 69.1152 16.1654 69.1477 15.165C69.1786 14.1615 68.7638 13.6442 67.5764 13.4881C65.9369 13.2717 64.2778 13.2603 62.6365 13.4864C61.4296 13.6523 61.0083 14.1858 61.0523 15.2447C61.0929 16.2142 61.6736 16.7867 62.8203 16.8746C63.5735 16.9331 64.3347 16.886 65.0927 16.886H65.091Z" fill="#12ADC1"/>
<path d="M103.38 8.29448C102.486 8.29448 101.591 8.30751 100.698 8.28799C100.27 8.27823 100.059 8.38883 100.065 8.87355C100.09 10.6888 100.03 12.5057 100.1 14.3193C100.171 16.1492 101.918 17.0519 103.538 16.1606C103.948 15.9345 104.117 15.5441 104.247 15.118C104.633 13.8541 105.373 13.2669 106.362 13.4182C107.284 13.5597 107.958 14.4836 107.995 15.658C108.086 18.5419 106.905 20.0318 104.065 20.4434C102.235 20.7085 100.379 20.6581 98.5609 20.3181C96.4951 19.931 95.2654 18.3142 95.2053 15.9329C95.1483 13.685 95.1662 11.4354 95.1874 9.18584C95.1923 8.58401 95.1288 8.26846 94.3806 8.25382C93.2827 8.23267 92.689 7.45517 92.6792 6.27916C92.6694 5.1552 93.2241 4.44927 94.3253 4.35493C94.958 4.30125 95.1955 4.06541 95.1337 3.45057C95.1077 3.18381 95.1337 2.9089 95.1581 2.63889C95.2882 1.23028 96.0722 0.530868 97.5199 0.521109C99.1399 0.511349 99.8817 1.13431 100.056 2.61774C100.118 3.14475 99.8166 3.82303 100.246 4.16461C100.705 4.53059 101.398 4.29313 101.986 4.30126C103.286 4.32241 104.587 4.29312 105.889 4.31427C107.266 4.33704 108.013 5.069 107.992 6.32796C107.971 7.55114 107.219 8.26196 105.898 8.28473C105.059 8.29937 104.218 8.28799 103.379 8.28799V8.29448H103.38Z" fill="#12ADC1"/>
<path d="M78.2419 12.6081C78.2419 11.2272 78.2273 10.0609 78.2501 8.89631C78.2582 8.449 78.1183 8.2961 77.6547 8.26519C76.3958 8.18387 75.7516 7.50395 75.7256 6.32469C75.6996 5.14705 76.29 4.47852 77.5864 4.32562C78.0614 4.27032 78.2826 4.11418 78.2354 3.62784C78.2175 3.43915 78.2354 3.24885 78.2338 3.05854C78.1948 0.65609 79.9498 0.140467 81.8578 0.700008C82.6028 0.917968 82.9557 1.55884 83.0891 2.28917C83.1558 2.6584 83.1688 3.04877 83.1314 3.42126C83.0647 4.08327 83.2941 4.3354 83.9854 4.31913C85.6916 4.28009 87.3995 4.29147 89.1074 4.31425C90.3355 4.33051 90.9926 5.01693 91.0284 6.24824C91.0642 7.48118 90.3664 8.25705 89.1204 8.2782C87.4142 8.30748 85.7046 8.31724 83.9984 8.2782C83.3364 8.26193 83.0989 8.4376 83.1216 9.13215C83.1769 10.8108 83.1135 12.4943 83.1737 14.1713C83.2453 16.1427 84.5335 16.9429 86.4041 16.2403C86.8384 16.0776 87.1198 15.7686 87.258 15.3245C87.3377 15.0659 87.4011 14.7991 87.5166 14.5568C87.855 13.8443 88.382 13.3791 89.2197 13.4019C90.0622 13.423 90.5583 13.9305 90.8544 14.656C91.8173 17.0226 90.3095 19.8789 87.8224 20.336C85.8071 20.7068 83.7706 20.6776 81.7553 20.3343C79.8408 20.009 78.6827 18.7208 78.3786 16.777C78.1492 15.3196 78.2972 13.8541 78.2436 12.6081H78.2419Z" fill="#12ADC1"/>
<path d="M27.3107 17.1269C27.3107 17.5059 27.3465 17.8881 27.3042 18.2623C27.1643 19.4854 26.4258 20.1491 25.201 20.1897C24.957 20.1979 24.7131 20.1946 24.4691 20.1946C22.4521 20.1946 21.7852 19.5521 21.7494 17.5498C21.7381 16.9545 21.7348 16.3543 21.8015 15.7655C21.9349 14.5732 22.6522 13.9307 23.8429 13.8656C23.8965 13.8624 23.9518 13.8656 24.0055 13.8624C26.7918 13.7941 27.3514 14.3406 27.3091 17.1269H27.3107Z" fill="#12ADC1"/>
</svg>
