<svg width="18" height="18" viewBox="0 0 18 18" fill="none" xmlns="http://www.w3.org/2000/svg">
<path d="M9 1.7998C5.02997 1.7998 1.8 5.02978 1.8 8.9998C1.8 12.9698 5.02997 16.1998 9 16.1998C12.97 16.1998 16.2 12.9698 16.2 8.9998C16.2 5.02978 12.97 1.7998 9 1.7998ZM9.46834 13.2717C9.12628 13.3288 8.44563 13.4712 8.1 13.4998C7.80743 13.524 7.53134 13.3566 7.36304 13.1162C7.1943 12.8758 7.15387 12.5682 7.25405 12.2922L8.61503 8.54982H7.19999C7.19878 7.77001 7.7837 7.19663 8.5318 6.97658C8.88881 6.87154 9.55396 6.7278 9.89998 6.74983C10.1073 6.76301 10.4686 6.89308 10.6369 7.13348C10.8057 7.37386 10.8461 7.68148 10.7459 7.95746L9.38495 11.6998H10.7996C10.7998 12.4787 10.2367 13.1437 9.46834 13.2717ZM9.89998 6.29981C9.40291 6.29981 8.99998 5.89682 8.99998 5.3998C8.99998 4.90273 9.40291 4.4998 9.89998 4.4998C10.3971 4.4998 10.8 4.90273 10.8 5.3998C10.8 5.89685 10.3971 6.29981 9.89998 6.29981Z" fill="#12ADC1"/>
</svg>
