<svg width="20" height="23" viewBox="0 0 20 23" fill="none" xmlns="http://www.w3.org/2000/svg">
<path d="M15 9.6665C15 8.34042 14.4732 7.06865 13.5355 6.13097C12.5979 5.19329 11.3261 4.6665 10 4.6665C8.67392 4.6665 7.40215 5.19329 6.46447 6.13097C5.52678 7.06865 5 8.34042 5 9.6665C5 15.4998 2.5 17.1665 2.5 17.1665H17.5C17.5 17.1665 15 15.4998 15 9.6665Z" stroke="#282727" stroke-width="2" stroke-linecap="round" stroke-linejoin="round"/>
<path d="M11.4417 20.5C11.2952 20.7526 11.0849 20.9622 10.8319 21.1079C10.5788 21.2537 10.292 21.3304 10 21.3304C9.70802 21.3304 9.42116 21.2537 9.16815 21.1079C8.91513 20.9622 8.70484 20.7526 8.55833 20.5" stroke="#282727" stroke-width="2" stroke-linecap="round" stroke-linejoin="round"/>
<circle cx="14" cy="6" r="5" fill="#12ADC1" stroke="white" stroke-width="1.5"/>
</svg>
