<svg width="18" height="18" viewBox="0 0 18 18" fill="none" xmlns="http://www.w3.org/2000/svg">
<mask id="mask0_439_5799" style="mask-type:alpha" maskUnits="userSpaceOnUse" x="0" y="0" width="18" height="18">
<rect width="18" height="18" fill="#D9D9D9"/>
</mask>
<g mask="url(#mask0_439_5799)">
<path d="M14.9625 15.75C13.35 15.75 11.7781 15.3906 10.2469 14.6719C8.71563 13.9531 7.35938 13.0031 6.17813 11.8219C4.99688 10.6406 4.04688 9.28438 3.32812 7.75313C2.60938 6.22187 2.25 4.65 2.25 3.0375C2.25 2.8125 2.325 2.625 2.475 2.475C2.625 2.325 2.8125 2.25 3.0375 2.25H6.075C6.25 2.25 6.40625 2.30625 6.54375 2.41875C6.68125 2.53125 6.7625 2.675 6.7875 2.85L7.275 5.475C7.3 5.65 7.29688 5.80938 7.26562 5.95312C7.23438 6.09687 7.1625 6.225 7.05 6.3375L5.25 8.175C5.775 9.075 6.43125 9.91875 7.21875 10.7063C8.00625 11.4938 8.875 12.175 9.825 12.75L11.5875 10.9875C11.7 10.875 11.8469 10.7906 12.0281 10.7344C12.2094 10.6781 12.3875 10.6625 12.5625 10.6875L15.15 11.2125C15.325 11.25 15.4688 11.3344 15.5812 11.4656C15.6937 11.5969 15.75 11.75 15.75 11.925V14.9625C15.75 15.1875 15.675 15.375 15.525 15.525C15.375 15.675 15.1875 15.75 14.9625 15.75Z" fill="#12ADC1"/>
</g>
</svg>
