<svg width="18" height="18" viewBox="0 0 18 18" fill="none" xmlns="http://www.w3.org/2000/svg">
<path d="M16.2 6.83437V6.075C16.2 5.20515 15.4949 4.5 14.625 4.5H3.375C2.50515 4.5 1.8 5.20515 1.8 6.075V6.83437C1.8 6.91203 1.86297 6.975 1.94063 6.975H16.0594C16.137 6.975 16.2 6.91203 16.2 6.83437Z" fill="#12ADC1"/>
<path d="M1.8 8.01562V12.825C1.8 13.6948 2.50515 14.4 3.375 14.4H14.625C15.4949 14.4 16.2 13.6948 16.2 12.825V8.01562C16.2 7.93797 16.137 7.875 16.0594 7.875H1.94063C1.86297 7.875 1.8 7.93797 1.8 8.01562ZM5.4 11.7C5.4 11.9485 5.19852 12.15 4.95 12.15H4.5C4.25149 12.15 4.05 11.9485 4.05 11.7V11.25C4.05 11.0015 4.25149 10.8 4.5 10.8H4.95C5.19852 10.8 5.4 11.0015 5.4 11.25V11.7Z" fill="#12ADC1"/>
</svg>
