<svg width="29" height="28" viewBox="0 0 29 28" fill="none" xmlns="http://www.w3.org/2000/svg">
<g clip-path="url(#clip0_438_6026)">
<path d="M14.5001 0.0581055C6.76813 0.0581055 0.5 6.32624 0.5 14.0582C0.5 20.9928 5.54731 26.7359 12.1651 27.848V16.979H8.78792V13.0677H12.1651V10.1836C12.1651 6.83728 14.209 5.01372 17.1946 5.01372C18.6245 5.01372 19.8533 5.12027 20.2101 5.1672V8.66501L18.1393 8.66601C16.516 8.66601 16.2031 9.43725 16.2031 10.5694V13.0657H20.0765L19.5713 16.977H16.2031V27.9415C23.1299 27.0985 28.5 21.2091 28.5 14.0542C28.5 6.32624 22.2319 0.0581055 14.5001 0.0581055Z" fill="#12ADC1"/>
</g>
<defs>
<clipPath id="clip0_438_6026">
<rect width="28" height="28" fill="white" transform="translate(0.5)"/>
</clipPath>
</defs>
</svg>
