<svg width="24" height="24" viewBox="0 0 24 24" fill="none" xmlns="http://www.w3.org/2000/svg">
<path d="M3.66667 5.83333C3.66667 5.36662 3.66667 5.13327 3.7575 4.95501C3.83739 4.79821 3.96488 4.67072 4.12168 4.59083C4.29994 4.5 4.53329 4.5 5.00001 4.5H19C19.4667 4.5 19.7001 4.5 19.8783 4.59083C20.0351 4.67072 20.1626 4.79821 20.2425 4.95501C20.3333 5.13327 20.3333 5.36662 20.3333 5.83333V6.39116C20.3333 6.61516 20.3333 6.72716 20.306 6.8313C20.2817 6.92359 20.2418 7.01103 20.1879 7.0898C20.1272 7.17869 20.0425 7.25204 19.8732 7.39875L14.5434 12.0179C14.3742 12.1646 14.2895 12.238 14.2287 12.3269C14.1749 12.4056 14.135 12.4931 14.1107 12.5854C14.0833 12.6895 14.0833 12.8015 14.0833 13.0255V17.382C14.0833 17.5449 14.0833 17.6264 14.0571 17.6969C14.0338 17.7591 13.9961 17.8149 13.9469 17.8596C13.8912 17.9102 13.8156 17.9404 13.6643 18.001L10.8309 19.1343C10.5246 19.2568 10.3715 19.3181 10.2486 19.2925C10.1411 19.2702 10.0467 19.2063 9.98605 19.1148C9.91667 19.0101 9.91667 18.8452 9.91667 18.5153V13.0255C9.91667 12.8015 9.91667 12.6895 9.8893 12.5854C9.86504 12.4931 9.82512 12.4056 9.77126 12.3269C9.71049 12.238 9.62585 12.1646 9.45658 12.0179L4.12676 7.39875C3.95749 7.25204 3.87286 7.17869 3.81208 7.0898C3.75823 7.01103 3.7183 6.92359 3.69404 6.8313C3.66667 6.72716 3.66667 6.61516 3.66667 6.39116V5.83333Z" stroke="#282727" stroke-width="2" stroke-linecap="round" stroke-linejoin="round"/>
</svg>
