<svg width="30" height="48" viewBox="0 0 30 48" fill="none" xmlns="http://www.w3.org/2000/svg">
<path d="M5.03923 27.9076C3.69215 27.9076 2.34507 27.9076 0.998872 27.9076C0.648262 27.9076 0.276563 27.9568 0.0893951 27.5474C-0.108317 27.1141 0.0445814 26.7591 0.326651 26.4199C1.4312 25.0922 2.53224 23.7609 3.62976 22.4279C9.41702 15.3973 15.2025 8.36575 20.9898 1.33423C21.2595 1.00647 21.5346 0.683097 21.8079 0.35797C22.0135 0.114565 22.2332 -0.125324 22.5864 0.0741452C22.9186 0.261313 23.0407 0.5715 22.9397 0.935291C22.7129 1.7525 22.4713 2.56532 22.227 3.37725C20.6374 8.67418 19.046 13.9694 17.4556 19.2663C16.6348 21.9982 15.8132 24.7293 15.003 27.4647C14.9152 27.7618 14.7895 27.9076 14.4618 27.9797C13.6656 28.1545 13.1252 28.6932 12.7904 29.4146C12.2175 30.6501 12.2825 31.8715 13.0382 33.0095C14.0944 34.6008 16.2614 34.4128 17.1348 32.651C17.7464 31.4172 17.6814 30.187 16.9301 29.021C16.7833 28.7934 16.7306 28.6045 16.8132 28.3338C17.6462 25.5904 18.4722 22.8444 19.2798 20.0932C19.3764 19.7645 19.5452 19.703 19.8448 19.7039C22.597 19.7118 25.35 19.7092 28.1021 19.7074C28.4747 19.7074 28.8508 19.6898 29.0301 20.1186C29.1997 20.5237 29.052 20.848 28.7911 21.1634C25.9598 24.5966 23.1338 28.035 20.3052 31.4708C16.025 36.6702 11.7439 41.8687 7.46362 47.0681C7.40738 47.1358 7.35378 47.2061 7.29403 47.2702C7.08313 47.4978 6.87312 47.7694 6.51636 47.5576C6.17542 47.3546 6.06294 47.033 6.17278 46.6507C6.45661 45.6675 6.74219 44.6842 7.03568 43.7035C9.39065 35.8565 11.7491 28.0113 14.0971 20.1626C14.1876 19.8603 14.3106 19.7206 14.6366 19.6477C15.2904 19.5018 15.7772 19.0844 16.141 18.5185C16.9371 17.2795 16.8405 15.5159 15.9055 14.4122C14.8414 13.1557 13.0874 13.2558 12.1674 14.6249C11.3678 15.8155 11.3599 17.3928 12.17 18.5967C12.3335 18.8401 12.3642 19.0492 12.279 19.3287C11.4548 22.0439 10.6367 24.7618 9.83529 27.485C9.73863 27.8118 9.59276 27.919 9.25621 27.9147C7.85114 27.8971 6.44519 27.9076 5.04011 27.9076H5.03923Z" fill="#FCCF30"/>
<path d="M15.1498 16.6537C15.134 16.9252 15.0681 17.2081 14.8879 17.4515C14.764 17.6185 14.6085 17.7424 14.4038 17.8101C13.8915 17.9788 13.4003 17.7002 13.1841 17.1062C12.946 16.4533 13.2236 15.6906 13.7851 15.4551C14.2957 15.2407 14.7719 15.4647 15.0189 16.0324C15.1023 16.2231 15.1498 16.4199 15.1498 16.6537Z" fill="#FCCF30"/>
<path d="M16.0065 31.004C16.0065 31.3361 15.909 31.6384 15.6954 31.8932C15.2675 32.4046 14.5874 32.3739 14.2113 31.8229C13.909 31.3801 13.8712 30.9003 14.0856 30.4108C14.2552 30.0224 14.5478 29.7615 14.9845 29.7536C15.409 29.7465 15.6752 30.018 15.865 30.3713C15.9705 30.5681 16.0065 30.7825 16.0065 31.004Z" fill="#FCCF30"/>
</svg>
