<svg width="20" height="20" viewBox="0 0 20 20" fill="none" xmlns="http://www.w3.org/2000/svg">
<path d="M15.6355 6.85934C15.5808 6.74199 15.4631 6.66668 15.3335 6.66668H11.3835L15.2818 0.51168C15.3468 0.409023 15.3508 0.279023 15.2921 0.172695C15.2335 0.0660156 15.1214 0 15.0001 0H9.6668C9.54047 0 9.42512 0.0713281 9.36848 0.184336L4.36848 10.1843C4.3168 10.2873 4.32246 10.41 4.38313 10.5083C4.44414 10.6066 4.55113 10.6666 4.6668 10.6666H8.09445L4.35945 19.5373C4.29578 19.689 4.35246 19.865 4.49277 19.951C4.54676 19.984 4.60676 20 4.66645 20C4.76211 20 4.85645 19.9589 4.9218 19.8816L15.5885 7.21496C15.6721 7.11566 15.6901 6.97699 15.6355 6.85934Z" fill="white"/>
</svg>
