<svg width="18" height="24" viewBox="0 0 18 24" fill="none" xmlns="http://www.w3.org/2000/svg">
<path d="M7.83052 8.78297C7.78732 8.85594 7.72502 8.91572 7.65029 8.95579C7.57569 8.99585 7.49141 9.01469 7.40676 9.0103C7.22352 8.99937 7.04781 8.93305 6.903 8.81989C6.75819 8.70686 6.65106 8.55238 6.59592 8.37705C6.57394 8.31048 6.56565 8.24027 6.57168 8.17044C6.57759 8.10073 6.59756 8.03292 6.63046 7.971C6.67329 7.89778 6.73546 7.83774 6.81031 7.79755C6.88504 7.75748 6.96944 7.73877 7.05409 7.74367C7.23746 7.75435 7.4133 7.82054 7.55823 7.9337C7.70304 8.04686 7.81005 8.20146 7.86493 8.37705C7.88679 8.44336 7.89508 8.51357 7.88955 8.58327C7.88403 8.65298 7.86456 8.7208 7.83253 8.78297H7.83052ZM9.20491 15.2171C9.172 15.2789 9.15203 15.3467 9.14601 15.4165C9.1401 15.4864 9.14839 15.5566 9.17037 15.623C9.22551 15.7985 9.33264 15.9529 9.47745 16.066C9.62226 16.179 9.79797 16.2454 9.98121 16.2563C10.0661 16.2609 10.1506 16.2421 10.2257 16.202C10.3007 16.1619 10.3634 16.1021 10.407 16.0289C10.439 15.9669 10.4585 15.8989 10.464 15.8292C10.4695 15.7595 10.4612 15.6894 10.4394 15.623C10.3845 15.4475 10.2775 15.2928 10.1326 15.1798C9.98774 15.0666 9.81191 15.0003 9.62854 14.9898C9.54389 14.9854 9.45974 15.0042 9.38501 15.0443C9.31028 15.0843 9.24799 15.1441 9.20491 15.2171ZM16.5389 9.93982H10.9218L10.5508 14.4702C10.9513 14.7497 11.2468 15.1557 11.39 15.623C11.6293 16.4613 11.1529 17.1473 10.3238 17.1798H10.2589C9.83464 17.1688 9.42407 17.027 9.08321 16.7738C8.68407 16.4938 8.38892 16.0891 8.24398 15.623C8.00686 14.7828 8.48123 14.0966 9.31028 14.0642L10.4494 0.509898C10.482 0.130349 9.9164 -0.174092 9.70754 0.114023L0.0524838 13.4188C-0.121855 13.6562 0.165996 14.0663 0.506547 14.0663H6.12168L6.49658 9.52988C6.09731 9.24905 5.80216 8.84363 5.65748 8.37705C5.42023 7.5387 5.89661 6.8527 6.72365 6.82017H6.7906C7.21486 6.83147 7.6253 6.97327 7.96629 7.22609C8.36543 7.5063 8.66058 7.91096 8.80552 8.37705C9.04264 9.21728 8.56839 9.90327 7.73921 9.9358L6.59793 23.4902C6.56553 23.8697 7.13309 24.1741 7.34196 23.8859L16.9971 10.5833C17.1694 10.3457 16.8835 9.9358 16.5429 9.9358L16.5389 9.93982Z" fill="white"/>
</svg>
