<svg width="28" height="28" viewBox="0 0 28 28" fill="none" xmlns="http://www.w3.org/2000/svg">
<rect width="28" height="28" rx="4" fill="#12ADC1" fill-opacity="0.1"/>
<path d="M19.0719 11.1734C19.0227 11.0678 18.9168 11 18.8001 11H15.2451L18.7536 5.46051C18.8121 5.36812 18.8157 5.25112 18.7629 5.15543C18.7101 5.05941 18.6093 5 18.5001 5H13.7001C13.5864 5 13.4826 5.0642 13.4316 5.1659L8.93163 14.1659C8.88512 14.2586 8.89021 14.369 8.94481 14.4575C8.99973 14.546 9.09602 14.6 9.20012 14.6H12.285L8.92351 22.5836C8.8662 22.7201 8.91721 22.8785 9.04349 22.9559C9.09208 22.9856 9.14608 23 9.1998 23C9.2859 23 9.3708 22.9631 9.42962 22.8935L19.0296 11.4935C19.1049 11.4041 19.1211 11.2793 19.0719 11.1734Z" fill="#12ADC1"/>
</svg>
