<svg width="29" height="28" viewBox="0 0 29 28" fill="none" xmlns="http://www.w3.org/2000/svg">
<g clip-path="url(#clip0_438_6022)">
<path d="M14.5 16.8711C16.0857 16.8711 17.3711 15.5857 17.3711 14C17.3711 12.4143 16.0857 11.1289 14.5 11.1289C12.9143 11.1289 11.6289 12.4143 11.6289 14C11.6289 15.5857 12.9143 16.8711 14.5 16.8711Z" fill="#12ADC1"/>
<path d="M14.5 0.328125C6.94924 0.328125 0.828125 6.44924 0.828125 14C0.828125 21.5508 6.94924 27.6719 14.5 27.6719C22.0508 27.6719 28.1719 21.5508 28.1719 14C28.1719 6.44924 22.0508 0.328125 14.5 0.328125ZM22.9469 17.4748C22.8813 18.7747 22.516 20.0564 21.5688 20.9936C20.6124 21.9397 19.3245 22.2922 18.0122 22.3572H10.9879C9.67536 22.2922 8.38769 21.9399 7.43126 20.9936C6.48396 20.0564 6.11876 18.7747 6.05313 17.4748V10.5252C6.11876 9.22534 6.48402 7.94358 7.43126 7.00634C8.38769 6.06025 9.67552 5.70773 10.9879 5.64282H18.0121C19.3246 5.70773 20.6123 6.06009 21.5687 7.00634C22.516 7.94358 22.8812 9.22534 22.9469 10.5252L22.9469 17.4748Z" fill="#12ADC1"/>
<path d="M17.9234 7.22611C16.2125 7.17919 12.7879 7.17919 11.077 7.22611C10.1866 7.25055 9.17725 7.4722 8.54288 8.14978C7.88367 8.8541 7.63457 9.70504 7.60931 10.657C7.5649 12.3278 7.60931 17.3426 7.60931 17.3426C7.63823 18.2945 7.88367 19.1455 8.54288 19.8498C9.17725 20.5276 10.1866 20.7491 11.077 20.7735C12.7879 20.8204 16.2125 20.8204 17.9234 20.7735C18.8138 20.7491 19.8232 20.5274 20.4575 19.8498C21.1167 19.1455 21.3658 18.2946 21.3911 17.3426V10.657C21.3658 9.70504 21.1167 8.8541 20.4575 8.14978C19.8229 7.47198 18.8136 7.25055 17.9234 7.22611ZM14.5 18.45C13.6198 18.45 12.7594 18.189 12.0276 17.7C11.2958 17.211 10.7254 16.516 10.3885 15.7028C10.0517 14.8897 9.96359 13.9949 10.1353 13.1316C10.307 12.2684 10.7309 11.4754 11.3532 10.853C11.9756 10.2307 12.7685 9.80684 13.6318 9.63513C14.495 9.46341 15.3898 9.55154 16.203 9.88837C17.0162 10.2252 17.7112 10.7956 18.2002 11.5274C18.6892 12.2592 18.9502 13.1196 18.9502 13.9998C18.9502 15.1801 18.4813 16.312 17.6467 17.1466C16.8122 17.9811 15.6803 18.45 14.5 18.45ZM18.9691 10.4682C18.7931 10.4682 18.621 10.4159 18.4747 10.3181C18.3283 10.2203 18.2143 10.0813 18.147 9.91862C18.0796 9.75598 18.062 9.57703 18.0964 9.40439C18.1308 9.23176 18.2156 9.07319 18.34 8.94873C18.4645 8.82428 18.6231 8.73954 18.7958 8.70521C18.9684 8.67089 19.1474 8.68852 19.31 8.7559C19.4726 8.82327 19.6116 8.93735 19.7094 9.08371C19.8072 9.23007 19.8594 9.40214 19.8594 9.57816C19.8594 9.69506 19.8363 9.81082 19.7916 9.91882C19.7468 10.0268 19.6813 10.1249 19.5986 10.2076C19.5159 10.2902 19.4178 10.3558 19.3098 10.4005C19.2018 10.4452 19.086 10.4682 18.9691 10.4682Z" fill="#12ADC1"/>
</g>
<defs>
<clipPath id="clip0_438_6022">
<rect width="28" height="28" fill="white" transform="translate(0.5)"/>
</clipPath>
</defs>
</svg>
