<svg width="20" height="20" viewBox="0 0 20 20" fill="none" xmlns="http://www.w3.org/2000/svg">
<path d="M18.4647 14.62C18.2094 14.4797 17.8888 14.573 17.7486 14.8282C17.6084 15.0835 17.7016 15.4041 17.9569 15.5443C18.585 15.8894 18.9453 16.272 18.9453 16.594C18.9453 16.9877 18.3874 17.5981 16.8214 18.1301C15.2744 18.6557 13.2069 18.9452 11 18.9452C8.79307 18.9452 6.72563 18.6557 5.17858 18.1301C3.61262 17.5981 3.05469 16.9877 3.05469 16.594C3.05469 16.272 3.41497 15.8894 4.04314 15.5443C4.29841 15.4041 4.39164 15.0835 4.25141 14.8282C4.11117 14.573 3.79065 14.4797 3.53531 14.6199C2.83493 15.0047 2 15.6595 2 16.594C2 17.3102 2.49261 18.3315 4.83929 19.1287C6.49276 19.6905 8.68067 19.9999 11 19.9999C13.3193 19.9999 15.5072 19.6905 17.1607 19.1287C19.5074 18.3315 20 17.3102 20 16.594C20 15.6595 19.1651 15.0047 18.4647 14.62Z" fill="#686B70" fill-opacity="0.5"/>
<path d="M7.01863 17.3677C8.08914 17.6701 9.50309 17.8367 11 17.8367C12.4969 17.8367 13.9109 17.6702 14.9814 17.3677C16.2911 16.9978 16.9551 16.4622 16.9551 15.776C16.9551 15.0898 16.2911 14.5543 14.9814 14.1844C14.6906 14.1022 14.3744 14.0302 14.0383 13.9688C13.8557 14.2842 13.6644 14.6088 13.4644 14.9429C13.8365 14.9987 14.1859 15.0671 14.5031 15.148C15.467 15.3935 15.8191 15.6698 15.8915 15.7761C15.8191 15.8823 15.467 16.1587 14.5032 16.4042C13.5909 16.6365 12.4172 16.7691 11.181 16.7809C11.1211 16.7853 11.0608 16.7878 11 16.7878C10.9392 16.7878 10.8789 16.7853 10.819 16.7809C9.58283 16.7691 8.4091 16.6365 7.49683 16.4042C6.53299 16.1587 6.1809 15.8823 6.10851 15.7761C6.1809 15.6698 6.53302 15.3935 7.49686 15.148C7.81411 15.0672 8.16346 14.9987 8.53559 14.9429C8.33559 14.6089 8.1443 14.2841 7.96174 13.9688C7.62557 14.0302 7.30934 14.1022 7.01863 14.1844C5.70896 14.5543 5.04489 15.0898 5.04489 15.776C5.04489 16.4622 5.70896 16.9977 7.01863 17.3677Z" fill="#686B70" fill-opacity="0.5"/>
<path d="M11 15.7332C11.4694 15.7332 11.8958 15.494 12.1407 15.0933C13.8567 12.2859 15.9022 8.58582 15.9022 6.90215C15.9022 4.19909 13.7031 2 11 2C8.2969 2 6.09781 4.19909 6.09781 6.90215C6.09781 8.58582 8.14331 12.2859 9.85925 15.0933C10.1041 15.494 10.5306 15.7332 11 15.7332ZM9.02959 6.56557C9.02959 5.47913 9.91353 4.59523 11 4.59523C12.0865 4.59523 12.9704 5.47913 12.9704 6.56557C12.9704 7.65204 12.0865 8.53593 11 8.53593C9.91353 8.53593 9.02959 7.65207 9.02959 6.56557Z" fill="#686B70" fill-opacity="0.5"/>
</svg>
