<svg width="28" height="28" viewBox="0 0 28 28" fill="none" xmlns="http://www.w3.org/2000/svg">
<rect width="28" height="28" rx="4" fill="#12ADC1" fill-opacity="0.1"/>
<path d="M14.0281 6.7998C11.9345 6.7998 10.2312 8.50308 10.2312 10.5967C10.2312 12.6903 11.9345 14.3936 14.0281 14.3936C16.1217 14.3936 17.825 12.6903 17.825 10.5967C17.825 8.50308 16.1217 6.7998 14.0281 6.7998Z" fill="#12ADC1"/>
<path d="M18.7522 16.874C17.7127 15.8186 16.3346 15.2373 14.8719 15.2373H13.1844C11.7216 15.2373 10.3436 15.8186 9.30408 16.874C8.26967 17.9243 7.7 19.3107 7.7 20.7779C7.7 21.0109 7.88888 21.1998 8.12187 21.1998H19.9344C20.1674 21.1998 20.3562 21.0109 20.3562 20.7779C20.3562 19.3107 19.7866 17.9243 18.7522 16.874Z" fill="#12ADC1"/>
</svg>
