<svg width="18" height="18" viewBox="0 0 18 18" fill="none" xmlns="http://www.w3.org/2000/svg">
<path d="M14.6425 13.573C14.3203 12.6139 13.036 12.0136 12.1203 11.6112C11.7616 11.4541 10.7684 11.1875 10.6491 10.7359C10.6064 10.5731 10.6121 10.4197 10.6472 10.2727C10.592 10.2832 10.536 10.2895 10.478 10.2895H9.8814C9.40508 10.2895 9.01804 9.90195 9.01804 9.42595C9.01804 8.95027 9.40524 8.56355 9.8814 8.56355H10.478C10.6752 8.56355 10.862 8.63027 11.0128 8.74931C11.2337 8.71987 11.4468 8.67267 11.6456 8.61075C11.9065 8.06403 12.11 7.41027 12.1556 6.84755C12.3504 4.43987 10.8744 3.03123 8.75804 3.27475C7.21932 3.45187 6.30012 4.59923 6.20076 6.07635C6.10028 7.58195 6.65852 8.69395 7.25148 9.50963C7.51116 9.86627 7.78396 10.0955 7.74204 10.5253C7.6934 11.0335 7.15004 11.1751 6.7614 11.3312C6.30092 11.5162 5.80492 11.7968 5.57068 11.9266C4.7638 12.3722 3.8782 12.9088 3.67916 13.6429C3.23836 15.2698 4.727 15.7626 5.95596 15.9901C7.01068 16.1847 8.19996 16.2 9.1782 16.2C10.9476 16.2 14.1294 16.1291 14.6425 14.7991C14.7884 14.4216 14.7259 13.8202 14.6425 13.573Z" fill="#12ADC1"/>
<path d="M10.8556 9.18268C10.7747 9.05932 10.6363 8.9774 10.4784 8.9774H9.88173C9.63277 8.9774 9.43197 9.17852 9.43197 9.4262C9.43197 9.67484 9.63277 9.87628 9.88173 9.87628H10.4784C10.6526 9.87628 10.8004 9.77692 10.875 9.63324C11.7068 9.5678 12.4304 9.31372 12.9382 8.93852C13.0548 9.01372 13.1928 9.05772 13.3416 9.05772H13.379C13.7937 9.05772 14.1291 8.72204 14.1291 8.30684V6.80796C14.1291 6.5094 13.954 6.2518 13.7016 6.13212C13.5915 3.72524 11.599 1.7998 9.16509 1.7998C6.73117 1.7998 4.73837 3.72524 4.62877 6.13212C4.37581 6.25196 4.20093 6.5094 4.20093 6.80796V8.30684C4.20093 8.72204 4.53661 9.05772 4.95037 9.05772H4.98829C5.40237 9.05772 5.73821 8.72204 5.73821 8.30684V6.80796C5.73821 6.51372 5.56813 6.25996 5.32093 6.13724C5.42797 4.10924 7.11085 2.49276 9.16509 2.49276C11.2185 2.49276 12.9022 4.10924 13.0088 6.13724C12.7619 6.26012 12.592 6.51372 12.592 6.80796V8.30684C12.592 8.40636 12.6113 8.499 12.6454 8.58556C12.2083 8.89836 11.572 9.12124 10.8556 9.18268Z" fill="#12ADC1"/>
</svg>
