<svg width="18" height="18" viewBox="0 0 18 18" fill="none" xmlns="http://www.w3.org/2000/svg">
<path d="M9.8939 3.73488C9.81777 3.77766 9.74588 3.82969 9.68004 3.89075L9.31484 4.22943L11.0704 5.82232C11.3161 6.04527 11.5027 6.32902 11.6101 6.64292C11.7176 6.95682 11.7439 7.29545 11.6863 7.62218L10.6806 13.3258C10.5143 14.2686 9.69947 14.9529 8.74303 14.9529C8.62856 14.9529 8.51308 14.9428 8.39985 14.9228L8.07922 14.8663L8.15041 15.2699C8.24662 15.8157 8.72129 16.1998 9.25698 16.1998C9.32181 16.1998 15.2702 15.1569 15.2702 15.1569C15.8821 15.049 16.2906 14.4655 16.1827 13.8536L14.7792 5.89364C14.7131 5.51888 14.462 5.20292 14.1119 5.05389L10.8856 3.68055C10.835 3.659 10.7834 3.64159 10.7312 3.62784L10.5914 2.75287L10.4959 2.15516C10.4591 1.92507 10.2427 1.76841 10.0128 1.80514C9.78267 1.8419 9.62598 2.05821 9.66274 2.2883L9.75595 2.8715L9.8939 3.73488Z" fill="#12ADC1"/>
<path d="M6.18169 8.47101L6.41232 7.16309C6.40776 7.16359 6.40337 7.16396 6.39879 7.16449C6.09557 7.20046 5.90506 7.43185 5.82788 7.6364C5.74514 7.85569 5.76792 8.07462 5.88734 8.20776C5.96246 8.29152 6.05862 8.37775 6.18169 8.47101Z" fill="#12ADC1"/>
<path d="M6.58902 9.40039L6.28589 11.1195C6.69758 11.0752 6.98718 10.7762 7.09693 10.467C7.15096 10.3148 7.28233 9.79271 6.70425 9.46609C6.66476 9.44382 6.6264 9.42191 6.58902 9.40039Z" fill="#12ADC1"/>
<path d="M6.94019 3.84636C6.87708 3.85983 6.81458 3.87857 6.75347 3.90326L3.50891 5.21447C3.14928 5.35982 2.88988 5.68017 2.82252 6.06216L1.81728 11.7631C1.70939 12.375 2.11797 12.9585 2.72982 13.0664L8.54635 14.092C8.61244 14.1036 8.67814 14.1092 8.74303 14.1092C9.27867 14.1092 9.75339 13.7252 9.8496 13.1794L10.8553 7.47572C10.9224 7.09519 10.7895 6.70687 10.5034 6.44722L7.93092 4.1131C7.88083 4.06765 7.82725 4.02749 7.77114 3.99242L7.92394 3.12583L8.07045 2.29502C8.11089 2.06557 7.95769 1.84676 7.72825 1.80632C7.49889 1.76573 7.27999 1.91904 7.23955 2.14851L7.09305 2.97944L6.94019 3.84636ZM7.13093 6.32693L7.07285 6.65638C7.45451 6.76843 7.66767 6.99352 7.76965 7.10126C7.78391 7.11634 7.79867 7.13192 7.80573 7.13845C7.91978 7.24389 7.92676 7.42183 7.82132 7.53588C7.71588 7.64993 7.53796 7.6569 7.42388 7.55146C7.40307 7.53222 7.38271 7.51071 7.36116 7.48796C7.28551 7.40802 7.1718 7.28818 6.97428 7.21542L6.69328 8.80901C6.78162 8.86197 6.87713 8.91746 6.98097 8.97613C7.60939 9.33118 7.863 9.99015 7.62703 10.6549C7.51113 10.9814 7.28683 11.2638 6.9954 11.45C6.75057 11.6064 6.47472 11.6867 6.18568 11.6876L6.11458 12.0908C6.09053 12.2272 5.97185 12.3232 5.83794 12.3232C5.82171 12.3232 5.80529 12.3218 5.78878 12.3189C5.63581 12.292 5.53366 12.1461 5.56063 11.9931L5.62799 11.6111C5.26087 11.5293 4.99647 11.4064 4.63194 11.0641C4.51868 10.9578 4.51306 10.7798 4.6194 10.6666C4.72571 10.5533 4.90369 10.5477 5.01695 10.654C5.28478 10.9055 5.45179 10.9939 5.72572 11.0571L6.07371 9.08351C5.80349 8.90309 5.61387 8.74494 5.46869 8.58311C5.20851 8.29306 5.14452 7.85411 5.30168 7.43758C5.47457 6.97934 5.86961 6.66057 6.33263 6.60567C6.39524 6.59825 6.45517 6.59392 6.51311 6.59175L6.57704 6.22925C6.60398 6.07628 6.74987 5.97416 6.90284 6.0011C7.05575 6.02807 7.1579 6.17396 7.13093 6.32693Z" fill="#12ADC1"/>
</svg>
