<svg width="29" height="28" viewBox="0 0 29 28" fill="none" xmlns="http://www.w3.org/2000/svg">
<g clip-path="url(#clip0_438_6019)">
<path fill-rule="evenodd" clip-rule="evenodd" d="M14.5 0C6.76828 0 0.5 6.26828 0.5 14C0.5 21.7317 6.76828 28 14.5 28C22.2317 28 28.5 21.7317 28.5 14C28.5 6.26828 22.2317 0 14.5 0ZM20.9892 9.52109C20.7787 11.7348 19.867 17.1068 19.4033 19.5863C19.207 20.6358 18.8203 20.9874 18.4463 21.0219C17.6336 21.0968 17.0162 20.4843 16.2287 19.968C14.9966 19.1603 14.3004 18.6577 13.1044 17.8697C11.7219 16.9586 12.6182 16.4582 13.4057 15.6401C13.6119 15.4257 17.1939 12.1674 17.2634 11.8721C17.2721 11.8349 17.2803 11.6971 17.1983 11.6244C17.1162 11.5516 16.9954 11.5768 16.9084 11.5965C16.7848 11.6244 14.8161 12.9254 11.0033 15.4995C10.4444 15.8834 9.93852 16.0699 9.48461 16.0606C8.98477 16.0497 8.02336 15.7779 7.30859 15.5455C6.43195 15.2605 5.73523 15.1096 5.79594 14.6256C5.82711 14.3735 6.17438 14.1159 6.83719 13.8523C10.9185 12.0739 13.6398 10.902 15.0015 10.3354C18.8897 8.71834 19.6975 8.43719 20.2241 8.42789C20.8837 8.41624 21.0429 8.96071 20.9892 9.52109Z" fill="#12ADC1"/>
</g>
<defs>
<clipPath id="clip0_438_6019">
<rect width="28" height="28" fill="white" transform="translate(0.5)"/>
</clipPath>
</defs>
</svg>
