<svg width="18" height="18" viewBox="0 0 18 18" fill="none" xmlns="http://www.w3.org/2000/svg">
<path d="M9.02812 1.7998C6.93452 1.7998 5.23125 3.50308 5.23125 5.59668C5.23125 7.69028 6.93452 9.39355 9.02812 9.39355C11.1217 9.39355 12.825 7.69028 12.825 5.59668C12.825 3.50308 11.1217 1.7998 9.02812 1.7998Z" fill="#12ADC1"/>
<path d="M13.7522 11.874C12.7127 10.8186 11.3346 10.2373 9.87187 10.2373H8.18437C6.72165 10.2373 5.34358 10.8186 4.30408 11.874C3.26967 12.9243 2.7 14.3107 2.7 15.7779C2.7 16.0109 2.88888 16.1998 3.12187 16.1998H14.9344C15.1674 16.1998 15.3562 16.0109 15.3562 15.7779C15.3562 14.3107 14.7866 12.9243 13.7522 11.874Z" fill="#12ADC1"/>
</svg>
